<svg xmlns="http://www.w3.org/2000/svg" viewBox="0 0 24 24">
  <!-- Ko-fi mark: white cup with a red heart on the brand blue disc -->
  <circle cx="12" cy="12" r="12" fill="#29ABE0"/>
  <path fill="#fff" d="M5.2 7.6h10.6c2.4 0 3.9 1.4 3.9 3.5 0 2.2-1.6 3.6-3.8 3.6h-.6c-.3 1.7-1.7 2.8-3.4 2.8H8.6c-1.9 0-3.4-1.5-3.4-3.4z"/>
  <path fill="#29ABE0" d="M15.3 9.7h.6c1 0 1.7.6 1.7 1.5s-.7 1.5-1.7 1.5h-.6z"/>
  <path fill="#FF5E5B" d="M10.2 14.4l-2.3-2.2c-.7-.7-.7-1.7 0-2.2.6-.5 1.5-.4 2 .2l.3.3.3-.3c.5-.6 1.4-.7 2-.2.7.5.7 1.5 0 2.2z"/>
</svg>
